<?xml version="1.0" standalone="no"?>
<!DOCTYPE svg PUBLIC "-//W3C//DTD SVG 20010904//EN"
 "http://www.w3.org/TR/2001/REC-SVG-20010904/DTD/svg10.dtd">
<svg version="1.0" xmlns="http://www.w3.org/2000/svg"
 width="345.000000pt" height="345.000000pt" viewBox="0 0 345.000000 345.000000"
 preserveAspectRatio="xMidYMid meet">
<metadata>
Created by potrace 1.14, written by Peter Selinger 2001-2017
</metadata>
<g transform="translate(0.000000,345.000000) scale(0.100000,-0.100000)"
fill="#000000" stroke="none">
<path d="M635 2640 c-109 -28 -131 -36 -209 -78 -77 -42 -98 -57 -184 -137
-88 -81 -195 -263 -216 -365 -3 -14 -9 -47 -14 -74 -13 -62 -14 -434 -2 -501
39 -220 128 -368 314 -524 67 -55 232 -129 333 -148 52 -10 2077 -10 2133 0
58 10 152 43 215 75 180 90 333 265 400 459 36 104 44 170 43 394 0 235 -13
317 -73 446 -57 123 -124 207 -250 312 -41 34 -158 95 -230 119 -122 41 -156
42 -1192 41 -920 -1 -1003 -3 -1068 -19z"/>
</g>
</svg>
